<svg width="122" height="122" viewBox="0 0 122 122" fill="none" xmlns="http://www.w3.org/2000/svg">
<path d="M15.5222 99.3709C29.3954 91.5304 45.0646 87.4212 61 87.4444C77.5278 87.4444 93.0441 91.7747 106.478 99.3709M80.8333 47.7778C80.8333 53.0379 78.7438 58.0826 75.0243 61.8021C71.3048 65.5215 66.2601 67.6111 61 67.6111C55.7399 67.6111 50.6952 65.5215 46.9757 61.8021C43.2562 58.0826 41.1667 53.0379 41.1667 47.7778C41.1667 42.5176 43.2562 37.473 46.9757 33.7535C50.6952 30.034 55.7399 27.9444 61 27.9444C66.2601 27.9444 71.3048 30.034 75.0243 33.7535C78.7438 37.473 80.8333 42.5176 80.8333 47.7778ZM120.5 61C120.5 68.8136 118.961 76.5508 115.971 83.7697C112.981 90.9885 108.598 97.5478 103.073 103.073C97.5478 108.598 90.9885 112.981 83.7697 115.971C76.5508 118.961 68.8136 120.5 61 120.5C53.1863 120.5 45.4492 118.961 38.2303 115.971C31.0115 112.981 24.4522 108.598 18.9271 103.073C13.4021 97.5478 9.01932 90.9885 6.02917 83.7697C3.03901 76.5508 1.5 68.8136 1.5 61C1.5 45.2196 7.76873 30.0856 18.9271 18.9271C30.0856 7.76873 45.2196 1.5 61 1.5C76.7804 1.5 91.9144 7.76873 103.073 18.9271C114.231 30.0856 120.5 45.2196 120.5 61Z" stroke="black" stroke-opacity="0.7" stroke-width="3" stroke-linecap="round" stroke-linejoin="round"/>
</svg>
